<svg width="393" height="369" viewBox="0 0 393 369" fill="none" xmlns="http://www.w3.org/2000/svg">
<path d="M380.14 270.34C367.776 288.334 353.125 304.383 336.279 317.018C327.875 323.351 318.978 328.881 309.695 333.515C300.385 338.081 290.724 341.819 280.811 344.597C260.979 350.16 240.236 352.024 219.625 350.644C214.494 350.281 209.438 349.711 204.383 348.755C199.338 347.805 194.329 346.572 189.372 345.074C184.414 343.58 179.527 341.751 174.699 339.731C172.28 338.736 169.898 337.617 167.511 336.516C165.147 335.347 162.777 334.194 160.448 332.928" stroke="#FDDA24" stroke-width="24.8991" stroke-linecap="round"/>
<path d="M319.311 340.248C313.512 343.323 307.546 346.023 301.491 348.459C295.42 350.858 289.225 352.877 282.964 354.617C276.705 356.37 270.343 357.68 263.953 358.741C257.559 359.779 251.121 360.534 244.66 360.906C238.2 361.294 231.724 361.375 225.254 361.153L222.828 361.067L220.403 360.929C218.788 360.835 217.174 360.745 215.535 360.577C213.902 360.428 212.268 360.3 210.642 360.068C209.016 359.853 207.384 359.676 205.767 359.385C192.786 357.343 180.077 353.451 167.947 348.169C155.805 342.894 144.237 336.246 133.251 328.732C122.258 321.216 111.829 312.846 101.844 303.965C81.8897 286.159 63.7036 266.377 46.3016 246.019" stroke="#00C389" stroke-width="14.7858" stroke-linecap="round"/>
<path d="M104.624 293.162C82.5719 273 62.4584 250.253 42.994 226.857C23.5167 203.441 4.75404 179.218 -14.8746 155.599" stroke="#F5B6CD" stroke-width="15.3225" stroke-linecap="round"/>
</svg>
