<?xml version="1.0" encoding="utf-8"?>
<!-- Generator: Adobe Illustrator 26.4.1, SVG Export Plug-In . SVG Version: 6.00 Build 0)  -->
<svg version="1.1" id="Layer_1" xmlns="http://www.w3.org/2000/svg" xmlns:xlink="http://www.w3.org/1999/xlink" x="0px" y="0px"
	 viewBox="0 0 58.24 23.93" enable-background="new 0 0 58.24 23.93" xml:space="preserve">
<g>
	<defs>
		<rect id="SVGID_00000031890232226796581040000017885380592369722769_" width="58.24" height="23.93"/>
	</defs>
	<clipPath id="SVGID_00000058557352476347372160000008392473282781236624_">
		<use xlink:href="#SVGID_00000031890232226796581040000017885380592369722769_"  overflow="visible"/>
	</clipPath>
	<path clip-path="url(#SVGID_00000058557352476347372160000008392473282781236624_)" fill="#252527" d="M5.15,21.82
		c0,1.2-1.22,1.99-2.61,1.99H0v-6.6c0.85-0.12,1.49-0.2,2.25-0.2c1.4,0,2.51,0.64,2.51,1.77c0,0.64-0.34,1.07-0.95,1.31
		C4.75,20.35,5.15,20.91,5.15,21.82 M2.25,18.3c-0.22,0-0.44,0.02-0.66,0.05v1.36h0.7c0.62,0,0.91-0.26,0.91-0.69
		C3.2,18.59,2.9,18.3,2.25,18.3 M3.46,21.75c0-0.54-0.35-0.77-1.04-0.77H1.58v1.53H2.4C3.07,22.52,3.46,22.25,3.46,21.75"/>
	<path clip-path="url(#SVGID_00000058557352476347372160000008392473282781236624_)" fill="#252527" d="M10.32,20.59v2.69
		c-0.56,0.42-1.46,0.64-2.68,0.64c-1.09,0-1.99-0.44-1.99-1.41c0-1.46,1.44-1.82,3.15-1.87c-0.03-0.63-0.29-0.8-0.86-0.8
		c-0.3,0-1.1,0.13-1.2,0.13c-0.25,0-0.44-0.15-0.61-0.6l-0.12-0.37c0.64-0.23,1.27-0.4,1.96-0.4C9.45,18.61,10.32,19.16,10.32,20.59
		 M8.8,22.51v-0.88H8.5c-0.7,0-1.34,0.15-1.34,0.63c0,0.37,0.25,0.5,0.76,0.5C8.31,22.76,8.64,22.64,8.8,22.51"/>
	<path clip-path="url(#SVGID_00000058557352476347372160000008392473282781236624_)" fill="#252527" d="M16.02,20.18v3.64h-1.55
		v-3.1c0-0.54-0.36-0.82-0.99-0.82c-0.24,0-0.47,0.03-0.66,0.08v3.83h-1.56l0.01-4.55c0.65-0.43,1.71-0.66,2.57-0.66
		C15.01,18.6,16.02,19.18,16.02,20.18"/>
	<path clip-path="url(#SVGID_00000058557352476347372160000008392473282781236624_)" fill="#252527" d="M16.69,21.32
		c0-1.79,1.26-2.73,2.9-2.73c0.45,0,0.87,0.06,1.37,0.17c-0.06,0.51-0.28,0.96-0.52,1.22c-0.18-0.05-0.47-0.09-0.63-0.09
		c-1.04,0-1.47,0.53-1.47,1.34c0,0.82,0.39,1.32,1.38,1.32c0.27,0,0.58-0.05,0.96-0.18l0.28,1.23c-0.57,0.22-1.16,0.33-1.62,0.33
		C17.74,23.92,16.69,22.98,16.69,21.32"/>
	<path clip-path="url(#SVGID_00000058557352476347372160000008392473282781236624_)" fill="#252527" d="M21.25,21.25
		c0-1.63,1.12-2.66,2.7-2.66c1.64,0,2.7,1.06,2.7,2.66c0,1.64-1.07,2.67-2.7,2.67C22.31,23.92,21.25,22.86,21.25,21.25 M25.09,21.25
		c0-0.84-0.41-1.33-1.14-1.33c-0.7,0-1.14,0.49-1.14,1.33c0,0.88,0.42,1.34,1.14,1.34C24.68,22.59,25.09,22.13,25.09,21.25"/>
	<path clip-path="url(#SVGID_00000058557352476347372160000008392473282781236624_)" fill="#252527" d="M27.53,17.25
		c0.36-0.27,1.15-0.49,1.56-0.49v7.05h-1.56V17.25z"/>
	<path clip-path="url(#SVGID_00000058557352476347372160000008392473282781236624_)" fill="#252527" d="M29.98,21.25
		c0-1.63,1.12-2.66,2.7-2.66c1.65,0,2.7,1.06,2.7,2.66c0,1.64-1.07,2.67-2.7,2.67C31.03,23.92,29.98,22.86,29.98,21.25 M33.82,21.25
		c0-0.84-0.41-1.33-1.14-1.33c-0.7,0-1.14,0.49-1.14,1.33c0,0.88,0.42,1.34,1.14,1.34C33.4,22.59,33.82,22.13,33.82,21.25"/>
	<path clip-path="url(#SVGID_00000058557352476347372160000008392473282781236624_)" fill="#252527" d="M44.08,20.18v3.64h-1.54
		v-3.1c0-0.54-0.35-0.82-0.97-0.82c-0.29,0-0.57,0.06-0.8,0.15c0.08,0.22,0.12,0.47,0.12,0.73v3.02h-1.54v-3.1
		c0-0.54-0.35-0.82-0.97-0.82c-0.24,0-0.47,0.03-0.66,0.08v3.83h-1.56l0.01-4.55c0.62-0.43,1.59-0.66,2.41-0.66
		c0.65,0,1.21,0.22,1.61,0.56c0.53-0.34,1.26-0.56,1.88-0.56C43.2,18.6,44.08,19.19,44.08,20.18"/>
	<path clip-path="url(#SVGID_00000058557352476347372160000008392473282781236624_)" fill="#252527" d="M50.35,20.98
		c0,1.86-1.12,2.93-2.94,2.93c-0.89,0-1.75-0.16-2.27-0.4v-6.26c0.36-0.27,1.16-0.49,1.56-0.49v2.42c0.45-0.38,0.98-0.58,1.47-0.58
		C49.72,18.6,50.35,19.65,50.35,20.98 M48.81,21.18c0-0.94-0.5-1.28-1.29-1.28c-0.32,0-0.58,0.06-0.81,0.16v2.56
		c0.28,0.04,0.55,0.06,0.8,0.06C48.42,22.69,48.81,21.99,48.81,21.18"/>
	<path clip-path="url(#SVGID_00000058557352476347372160000008392473282781236624_)" fill="#252527" d="M51.21,17.13
		c0-0.43,0.36-0.79,0.8-0.79c0.45,0,0.81,0.35,0.81,0.79c0,0.42-0.36,0.79-0.81,0.79C51.57,17.92,51.21,17.57,51.21,17.13
		 M51.23,18.75c0.22-0.09,0.49-0.14,0.79-0.14c0.3,0,0.56,0.05,0.78,0.14v5.07h-1.56V18.75z"/>
	<path clip-path="url(#SVGID_00000058557352476347372160000008392473282781236624_)" fill="#252527" d="M58.23,20.59v2.69
		c-0.56,0.42-1.46,0.64-2.68,0.64c-1.09,0-1.99-0.44-1.99-1.41c0-1.46,1.44-1.82,3.15-1.87c-0.03-0.63-0.29-0.8-0.86-0.8
		c-0.3,0-1.1,0.13-1.2,0.13c-0.25,0-0.44-0.15-0.61-0.6l-0.12-0.37c0.64-0.23,1.27-0.4,1.96-0.4
		C57.37,18.61,58.23,19.16,58.23,20.59 M56.71,22.51v-0.88h-0.3c-0.7,0-1.34,0.15-1.34,0.63c0,0.37,0.25,0.5,0.76,0.5
		C56.23,22.76,56.56,22.64,56.71,22.51"/>
	<path clip-path="url(#SVGID_00000058557352476347372160000008392473282781236624_)" fill="#252527" d="M23.56,4.41
		c0.09,0.33,0.42,0.5,0.76,0.39c2.8-0.84,5.61-1.42,8.51-1.84c0.33-0.04,0.51-0.38,0.39-0.72c-0.26-0.71-0.39-1.06-0.65-1.77
		c-0.11-0.3-0.41-0.5-0.72-0.46c-2.83,0.34-5.57,0.85-8.31,1.63c-0.36,0.11-0.58,0.5-0.49,0.85C23.25,3.25,23.36,3.64,23.56,4.41"/>
	<path clip-path="url(#SVGID_00000058557352476347372160000008392473282781236624_)" fill="#252527" d="M34.91,4.8
		c-0.11-0.32-0.4-0.53-0.7-0.49c-4.43,0.55-8.75,1.63-12.84,3.4c-0.3,0.14-0.48,0.51-0.42,0.83c0.16,0.83,0.24,1.24,0.41,2.07
		c0.07,0.36,0.41,0.52,0.74,0.36c4.16-1.86,8.55-3.05,13.06-3.76c0.29-0.05,0.43-0.37,0.32-0.7C35.26,5.83,35.15,5.48,34.91,4.8"/>
	<path clip-path="url(#SVGID_00000058557352476347372160000008392473282781236624_)" fill="#252527" d="M34.9,9.43
		c-0.11-0.34-0.43-0.56-0.74-0.5c-2.77,0.59-5.47,1.3-8.15,2.2c-0.34,0.12-0.53,0.47-0.44,0.8c0.21,0.77,0.32,1.16,0.54,1.93
		c0.1,0.36,0.52,0.55,0.9,0.41c2.68-0.94,5.39-1.76,8.15-2.42c0.27-0.06,0.4-0.37,0.3-0.68C35.23,10.47,35.12,10.12,34.9,9.43"/>
</g>
</svg>
